<?xml version="1.0" encoding="UTF-8"?> <!-- Creator: CorelDRAW 2018 (64-Bit) --> <svg xmlns="http://www.w3.org/2000/svg" xmlns:xlink="http://www.w3.org/1999/xlink" xml:space="preserve" width="185.554mm" height="167.589mm" style="shape-rendering:geometricPrecision; text-rendering:geometricPrecision; image-rendering:optimizeQuality; fill-rule:evenodd; clip-rule:evenodd" viewBox="0 0 3697.74 3339.73"> <defs> <style type="text/css"> <![CDATA[ .fil14 {fill:#384D52;fill-rule:nonzero} .fil16 {fill:#3F3856;fill-rule:nonzero} .fil3 {fill:#482F2B;fill-rule:nonzero} .fil15 {fill:#526285;fill-rule:nonzero} .fil13 {fill:#565656;fill-rule:nonzero} .fil4 {fill:#69524B;fill-rule:nonzero} .fil6 {fill:#6D4241;fill-rule:nonzero} .fil17 {fill:#6D504D;fill-rule:nonzero} .fil7 {fill:#756260;fill-rule:nonzero} .fil9 {fill:#796738;fill-rule:nonzero} .fil40 {fill:#834D4D;fill-rule:nonzero} .fil18 {fill:#836E6D;fill-rule:nonzero} .fil5 {fill:#895E42;fill-rule:nonzero} .fil1 {fill:#917E48;fill-rule:nonzero} .fil12 {fill:#937056;fill-rule:nonzero} .fil10 {fill:#A07979;fill-rule:nonzero} .fil23 {fill:#AFA39E;fill-rule:nonzero} .fil45 {fill:#B6BCCD;fill-rule:nonzero} .fil47 {fill:#B89A9E;fill-rule:nonzero} .fil38 {fill:#BF7E48;fill-rule:nonzero} .fil24 {fill:#C1C3C6;fill-rule:nonzero} .fil37 {fill:#C69749;fill-rule:nonzero} .fil0 {fill:#C6B39E;fill-rule:nonzero} .fil39 {fill:#C88777;fill-rule:nonzero} .fil44 {fill:#C8BFAC;fill-rule:nonzero} .fil31 {fill:#CDD1E6;fill-rule:nonzero} .fil25 {fill:#D1D3D4;fill-rule:nonzero} .fil46 {fill:#D69385;fill-rule:nonzero} .fil43 {fill:#E2AFA3;fill-rule:nonzero} .fil21 {fill:#E89115;fill-rule:nonzero} .fil26 {fill:#E8E8EB;fill-rule:nonzero} .fil32 {fill:#ED952A;fill-rule:nonzero} .fil8 {fill:#EFBF75;fill-rule:nonzero} .fil19 {fill:#F69A80;fill-rule:nonzero} .fil28 {fill:#F6A891;fill-rule:nonzero} .fil42 {fill:#F9B16B;fill-rule:nonzero} .fil33 {fill:#F9C800;fill-rule:nonzero} .fil34 {fill:#FBCA9C;fill-rule:nonzero} .fil27 {fill:#FDF7CA;fill-rule:nonzero} .fil30 {fill:#FDFFF2;fill-rule:nonzero} .fil11 {fill:#FF8C42;fill-rule:nonzero} .fil20 {fill:#FFA748;fill-rule:nonzero} .fil36 {fill:#FFAA00;fill-rule:nonzero} .fil22 {fill:#FFC348;fill-rule:nonzero} .fil29 {fill:#FFD385;fill-rule:nonzero} .fil35 {fill:#FFDDA8;fill-rule:nonzero} .fil2 {fill:#FFEDA5;fill-rule:nonzero} .fil41 {fill:#FFF6B1;fill-rule:nonzero} ]]> </style> </defs> <g id="Слой_x0020_1"> <metadata id="CorelCorpID_0Corel-Layer"></metadata> <path class="fil0" d="M3640.51 2121.29l-16.52 -318.09 -269.04 -731.13 -257.73 -269.73 94.6 -188.02 65.31 -11.09 114.58 -270.66 224.61 -66.94 101.42 -125.79 -185.23 -139.84 -556.66 654.38 191.54 -225.18 365.12 -429.21 -475 163.49 -340.87 354.84 -466.97 22.98 -380.8 -26.1 -380.81 26.1 -466.96 -22.98 -340.88 -354.84 -475 -163.49 365.12 429.21 191.55 225.18 -556.66 -654.38 -185.23 139.84 101.41 125.79 224.61 66.94 114.58 270.66 65.32 11.09 94.6 188.02 -257.73 269.73 -269.03 731.13 1.74 -0.11c-1.11,0.07 -1.74,0.11 -1.74,0.11l-16.53 318.09 122.05 384.63 225.47 -723.73 147.31 245.61 143.56 239.38 235.63 160.7 304.48 207.66 -540.1 -368.36 -290.87 -484.99 -317.13 1017.97 500.17 -155.03 137.22 364.5 227.37 -186.21 159.91 398.91 224.67 -404.95 56.36 411.7 42.91 -163.49 169.51 274.14 243.13 -100.73 243.13 100.73 171.54 -266.4 -101.29 -385.95 142.17 541.7 56.36 -411.7 224.67 404.95 159.92 -398.91 227.37 186.21 137.22 -364.5 500.17 155.03 -317.13 -1017.97 -290.87 484.99 -540.1 368.36 304.47 -207.66 235.63 -160.7 143.56 -239.38 147.31 -245.61 225.47 723.73 122.05 -384.63zm-2775.1 -613.16l0 0 1966.9 0 -1966.9 0zm587.93 86.24l0 0c0.01,-0.01 0.02,-0.01 0.03,-0.02l-67.81 72.97 -126.29 135.88 194.07 -208.83zm858.82 72.95l0 0 -67.8 -72.96c0,0 0.01,0.01 0.01,0.01l194.07 208.83 -126.28 -135.88zm-1910.09 115.02l0 0 0.74 -0.04c-0.22,0.01 -0.48,0.03 -0.74,0.04zm-324.79 20.62l0 0 2.35 -0.15c-0.88,0.06 -1.66,0.11 -2.35,0.15zm9.29 -0.59l0 0 12.78 -0.81c-4.9,0.32 -9.17,0.58 -12.78,0.81zm20.91 -1.33l0 0 10.15 -0.65c-3.56,0.23 -6.95,0.44 -10.15,0.65zm70.56 -4.48l0 0 1.54 -0.1c-0.52,0.03 -1.03,0.07 -1.54,0.1zm12.17 -0.77l0 0 29.38 -1.87c-9.94,0.63 -19.78,1.26 -29.38,1.87zm37.37 -2.38l0 0 5.9 -0.37c-1.97,0.12 -3.94,0.25 -5.9,0.37zm79.23 -5.03l0 0 1.15 -0.08c-0.38,0.02 -0.77,0.05 -1.15,0.08zm27.65 -1.76l0 0 0.14 -0.01c-0.04,0.01 -0.09,0.01 -0.14,0.01zm58.49 -3.71l0 0 4.15 -0.27c-1.24,0.08 -2.63,0.17 -4.15,0.27zm323.04 338.35l0 0 249.64 -80.13 201.22 -64.57 -450.86 144.7zm1814.84 -144.7l0 0 201.21 64.57 249.64 80.13 -450.85 -144.7z"></path> <polygon class="fil1" points="938.29,1073.9 1286.71,1227.67 979.88,1186.51 "></polygon> <polygon class="fil2" points="1291.34,1229.82 1565.96,1473.22 1710.06,1290.7 "></polygon> <polygon class="fil3" points="185.23,0 440.6,603.23 741.89,654.38 "></polygon> <polygon class="fil4" points="185.23,0 101.41,265.64 326.02,332.57 "></polygon> <polygon class="fil5" points="185.23,0 -0,139.84 101.41,265.64 "></polygon> <polygon class="fil6" points="741.89,654.38 342.78,1072.08 642.49,1006.11 "></polygon> <polygon class="fil7" points="741.89,654.38 505.31,613.11 600.52,802.34 "></polygon> <polygon class="fil8" points="642.49,1006.11 932.26,1008.28 671.41,902.27 "></polygon> <polygon class="fil6" points="932.26,1008.28 938.29,1073.9 642.49,1006.11 "></polygon> <polygon class="fil9" points="642.49,1006.11 458.99,1389.27 378.89,1356.14 "></polygon> <polygon class="fil10" points="642.49,1006.11 716.02,1022.95 458.99,1389.27 "></polygon> <polygon class="fil11" points="642.49,1006.11 342.78,1072.08 378.89,1356.14 "></polygon> <polygon class="fil12" points="938.29,1073.9 979.88,1186.51 865.33,1313.11 778.98,1405.54 "></polygon> <polygon class="fil7" points="932.26,1008.28 1291.34,1229.82 938.29,1073.9 "></polygon> <polygon class="fil13" points="932.26,1008.28 1135.82,955.72 1291.34,1229.82 "></polygon> <polygon class="fil3" points="932.26,1008.28 741.89,654.38 671.41,902.27 "></polygon> <polygon class="fil14" points="741.89,654.38 1135.82,955.72 932.26,1008.28 "></polygon> <polygon class="fil15" points="741.89,654.38 1335.58,672.04 1135.82,955.72 "></polygon> <polygon class="fil16" points="1335.58,672.04 1001.1,518.33 1468.06,541.31 "></polygon> <polygon class="fil16" points="1335.58,672.04 1477.58,1040 1848.87,856.02 "></polygon> <polygon class="fil17" points="1335.58,672.04 1468.06,541.31 1848.87,856.02 "></polygon> <polygon class="fil6" points="1468.06,541.31 1848.87,515.21 1848.87,698.66 "></polygon> <polygon class="fil13" points="1468.06,541.31 1848.87,856.02 1848.87,698.66 "></polygon> <polygon class="fil10" points="1565.96,1473.22 1259.28,1803.21 1103.31,1689.25 "></polygon> <polygon class="fil12" points="1477.58,1040 1335.58,672.04 1135.82,955.72 "></polygon> <polygon class="fil18" points="1477.58,1040 1710.06,1290.7 1848.87,856.02 "></polygon> <polygon class="fil19" points="1477.58,1040 1291.34,1229.82 1135.82,955.72 "></polygon> <polygon class="fil8" points="1477.58,1040 1710.06,1290.7 1291.34,1229.82 "></polygon> <polygon class="fil20" points="1001.1,518.33 741.89,654.38 1335.58,672.04 "></polygon> <polygon class="fil21" points="741.89,654.38 660.23,163.49 1001.1,518.33 "></polygon> <polygon class="fil20" points="660.23,163.49 550.34,429.21 741.89,654.38 "></polygon> <polygon class="fil22" points="660.23,163.49 185.23,0 550.34,429.21 "></polygon> <polygon class="fil15" points="1848.87,1813.28 1746.88,2027.8 1848.87,2051.53 "></polygon> <polygon class="fil16" points="1746.88,2027.8 1848.87,2396.16 1848.87,2051.53 "></polygon> <polygon class="fil23" points="1565.96,1473.22 1642.81,1803.21 1385.57,1667.33 "></polygon> <polygon class="fil10" points="1746.88,2027.8 1642.81,1803.21 1848.87,1813.28 "></polygon> <polygon class="fil24" points="1642.81,1803.21 1848.87,1674.95 1848.87,1813.28 "></polygon> <polygon class="fil25" points="1848.87,1674.95 1565.96,1473.22 1642.81,1803.21 "></polygon> <polygon class="fil25" points="1642.81,1803.21 1477.58,2051.53 1746.88,2027.8 "></polygon> <polygon class="fil26" points="1385.57,1667.33 1428.18,1844.77 1642.81,1803.21 "></polygon> <polygon class="fil27" points="1385.57,1667.33 1259.28,1803.21 1428.18,1844.77 "></polygon> <polygon class="fil23" points="1428.18,1844.77 1477.58,2051.53 1166.88,1976.6 "></polygon> <polygon class="fil28" points="1259.28,1803.21 1166.88,1976.6 1428.18,1844.77 "></polygon> <polygon class="fil29" points="1166.88,1976.6 976.13,1771.01 1259.28,1803.21 "></polygon> <polygon class="fil26" points="1103.34,1689.26 976.13,1771.01 1259.28,1803.21 "></polygon> <polygon class="fil27" points="1103.34,1689.26 833.54,1658.04 976.13,1771.01 "></polygon> <polygon class="fil30" points="833.54,1658.04 865.42,1508.14 1103.34,1689.26 "></polygon> <polygon class="fil26" points="865.42,1508.14 778.98,1405.54 833.54,1658.04 "></polygon> <polygon class="fil31" points="778.98,1405.54 865.33,1313.11 865.42,1508.14 "></polygon> <path class="fil3" d="M1284.77 1226.86c0,0 -185.4,-72.12 -304.89,-40.35l-114.55 126.61c0,0 -117.76,430.67 387.62,379.72 0,0 205.37,-48.04 313.01,-219.62 0,0 -49.38,-150.74 -281.19,-246.36z"></path> <path class="fil32" d="M1183.8 1357.2c110.81,0 204.66,72.53 236.75,172.69 7.66,-23.93 11.84,-49.42 11.84,-75.88 0,-137.29 -111.3,-248.6 -248.59,-248.6 -137.29,0 -248.59,111.3 -248.59,248.6 0,26.46 4.18,51.95 11.84,75.88 32.07,-100.16 125.93,-172.69 236.75,-172.69z"></path> <path class="fil33" d="M1183.8 1702.59c110.81,0 204.66,-72.53 236.75,-172.7 -32.09,-100.16 -125.93,-172.69 -236.75,-172.69 -110.82,0 -204.67,72.53 -236.75,172.69 32.07,100.17 125.93,172.7 236.75,172.7z"></path> <path class="fil3" d="M1062.76 1438.63c0,75.34 61.08,136.41 136.42,136.41 75.33,0 136.41,-61.08 136.41,-136.41 0,-75.33 -61.08,-136.41 -136.41,-136.41 -75.34,0 -136.42,61.08 -136.42,136.41z"></path> <polygon class="fil24" points="1746.88,2027.8 1848.87,2396.16 1477.58,2051.53 "></polygon> <polygon class="fil34" points="1477.58,2051.53 1380.7,2266 1848.87,2396.16 "></polygon> <polygon class="fil35" points="1477.58,2051.53 1166.88,1976.6 1380.7,2266 "></polygon> <polygon class="fil31" points="1428.18,1844.77 1477.58,2051.53 1642.81,1803.21 "></polygon> <polygon class="fil8" points="1710.06,1290.7 1848.87,1674.95 1565.96,1473.22 "></polygon> <polygon class="fil36" points="1710.06,1290.7 1848.87,1311.99 1848.87,1674.95 "></polygon> <polygon class="fil11" points="1848.87,856.02 1710.06,1290.7 1848.87,1311.99 "></polygon> <polygon class="fil21" points="404.74,1782.19 695.61,2267.18 87.62,2800.16 "></polygon> <polygon class="fil37" points="404.74,1782.19 179.28,2505.92 57.22,2121.29 "></polygon> <path class="fil38" d="M404.74 1782.19c-0.01,0 -330.99,21.02 -330.99,21.02l-16.53 318.09 347.52 -339.1z"></path> <polygon class="fil39" points="404.74,1782.19 372.16,1580.82 73.75,1803.21 "></polygon> <polygon class="fil38" points="384.04,1349.3 372.16,1580.82 73.75,1803.21 "></polygon> <polygon class="fil12" points="384.04,1349.3 342.78,1072.08 73.75,1803.21 "></polygon> <polygon class="fil7" points="458.99,1389.27 372.16,1580.82 384.04,1349.3 "></polygon> <polygon class="fil5" points="458.99,1389.27 452.43,1627.26 372.16,1580.82 "></polygon> <polygon class="fil13" points="452.43,1627.26 404.74,1782.19 372.16,1580.82 "></polygon> <polygon class="fil7" points="452.43,1627.26 542.19,1883.72 404.74,1782.19 "></polygon> <polygon class="fil10" points="404.74,1782.19 552.05,2027.8 542.19,1883.72 "></polygon> <polygon class="fil40" points="542.19,1883.72 716.02,2121.29 552.05,2027.8 "></polygon> <polygon class="fil6" points="716.02,2121.29 695.61,2267.18 552.05,2027.8 "></polygon> <polygon class="fil18" points="695.61,2267.18 1235.71,2635.54 755.28,2593.22 "></polygon> <polygon class="fil5" points="695.61,2267.18 755.28,2593.22 87.62,2800.16 "></polygon> <polygon class="fil7" points="755.28,2593.22 952.38,2823.42 1235.71,2635.54 "></polygon> <polygon class="fil37" points="755.28,2593.22 725.01,3009.63 587.51,2644.37 "></polygon> <polygon class="fil1" points="755.28,2593.22 952.38,2823.42 725.01,3009.63 "></polygon> <polygon class="fil41" points="1380.7,2266 1235.71,2635.54 1336.96,2817.37 "></polygon> <polygon class="fil34" points="1166.88,1976.6 695.61,2267.18 716.02,2121.29 "></polygon> <polygon class="fil22" points="1166.88,1976.6 931.24,2427.88 695.61,2267.18 "></polygon> <polygon class="fil42" points="1166.88,1976.6 1235.71,2635.54 931.24,2427.88 "></polygon> <polygon class="fil43" points="1166.88,1976.6 1380.7,2266 1235.71,2635.54 "></polygon> <polygon class="fil24" points="1235.71,2635.54 1112.29,3222.33 1336.96,2817.37 "></polygon> <polygon class="fil23" points="1235.71,2635.54 952.38,2823.42 1112.29,3222.33 "></polygon> <polygon class="fil20" points="1380.7,2266 1673.77,2346.78 1535.5,2687.38 "></polygon> <polygon class="fil19" points="1380.7,2266 1535.5,2687.38 1336.96,2817.37 "></polygon> <polygon class="fil43" points="1673.77,2346.78 1680.32,2762.46 1535.5,2687.38 "></polygon> <polygon class="fil42" points="1673.77,2346.78 1759.69,2665.39 1680.32,2762.46 "></polygon> <polygon class="fil11" points="1673.77,2346.78 1848.87,2396.16 1759.69,2665.39 "></polygon> <polygon class="fil19" points="1848.87,2396.16 1848.87,2727.19 1759.69,2665.39 "></polygon> <polygon class="fil12" points="1535.5,2687.38 1605.74,3339.73 1680.32,2762.46 "></polygon> <polygon class="fil9" points="1680.32,2762.46 1848.87,3239.01 1605.74,3339.73 "></polygon> <polygon class="fil4" points="1680.32,2762.46 1759.69,2665.39 1848.87,3239.01 "></polygon> <polygon class="fil5" points="1759.69,2665.39 1848.87,2727.19 1848.87,3239.01 "></polygon> <polygon class="fil10" points="1535.5,2687.38 1393.32,3229.08 1336.96,2817.37 "></polygon> <polygon class="fil18" points="1535.5,2687.38 1605.74,3339.73 1436.23,3065.59 "></polygon> <polygon class="fil24" points="833.54,1658.04 716.02,2121.29 976.13,1771.01 "></polygon> <polygon class="fil44" points="976.13,1771.01 965.66,2041.17 716.02,2121.29 "></polygon> <polygon class="fil24" points="976.13,1771.01 1166.88,1976.6 965.66,2041.17 "></polygon> <polygon class="fil45" points="833.54,1658.04 542.19,1883.72 716.02,2121.29 "></polygon> <polygon class="fil44" points="833.54,1658.04 452.43,1627.26 542.19,1883.72 "></polygon> <polygon class="fil31" points="833.54,1658.04 594.92,1478.3 452.43,1627.26 "></polygon> <polygon class="fil23" points="594.92,1478.3 458.99,1389.27 452.43,1627.26 "></polygon> <polygon class="fil24" points="594.92,1478.3 778.98,1405.54 833.54,1658.04 "></polygon> <polygon class="fil46" points="778.98,1405.54 716.02,1022.95 938.29,1073.9 "></polygon> <polygon class="fil47" points="778.98,1405.54 458.99,1389.27 716.02,1022.95 "></polygon> <polygon class="fil0" points="778.98,1405.54 594.92,1478.3 458.99,1389.27 "></polygon> <polygon class="fil1" points="2759.45,1073.9 2411.02,1227.67 2717.86,1186.51 "></polygon> <polygon class="fil2" points="2406.4,1229.82 2131.78,1473.22 1987.68,1290.7 "></polygon> <polygon class="fil3" points="3512.51,0 3257.14,603.23 2955.85,654.38 "></polygon> <polygon class="fil4" points="3512.51,0 3596.32,265.64 3371.71,332.57 "></polygon> <polygon class="fil5" points="3512.51,0 3697.74,139.84 3596.32,265.64 "></polygon> <polygon class="fil6" points="2955.85,654.38 3354.95,1072.08 3055.24,1006.11 "></polygon> <polygon class="fil7" points="2955.85,654.38 3192.44,613.11 3097.22,802.34 "></polygon> <polygon class="fil8" points="3055.24,1006.11 2765.48,1008.28 3026.33,902.27 "></polygon> <polygon class="fil6" points="2765.48,1008.28 2759.45,1073.9 3055.24,1006.11 "></polygon> <polygon class="fil9" points="3055.24,1006.11 3238.74,1389.27 3318.85,1356.14 "></polygon> <polygon class="fil10" points="3055.24,1006.11 2981.72,1022.95 3238.74,1389.27 "></polygon> <polygon class="fil11" points="3055.24,1006.11 3354.95,1072.08 3318.85,1356.14 "></polygon> <polygon class="fil12" points="2759.45,1073.9 2717.86,1186.51 2832.41,1313.11 2918.76,1405.54 "></polygon> <polygon class="fil7" points="2765.48,1008.28 2406.4,1229.82 2759.45,1073.9 "></polygon> <polygon class="fil13" points="2765.48,1008.28 2561.92,955.72 2406.4,1229.82 "></polygon> <polygon class="fil3" points="2765.48,1008.28 2955.85,654.38 3026.33,902.27 "></polygon> <polygon class="fil14" points="2955.85,654.38 2561.92,955.72 2765.48,1008.28 "></polygon> <polygon class="fil15" points="2955.85,654.38 2362.15,672.04 2561.92,955.72 "></polygon> <polygon class="fil16" points="2362.15,672.04 2696.64,518.33 2229.67,541.31 "></polygon> <polygon class="fil16" points="2362.15,672.04 2220.16,1040 1848.87,856.02 "></polygon> <polygon class="fil17" points="2362.15,672.04 2229.67,541.31 1848.87,856.02 "></polygon> <polygon class="fil6" points="2229.67,541.31 1848.87,515.21 1848.87,698.66 "></polygon> <polygon class="fil13" points="2229.67,541.31 1848.87,856.02 1848.87,698.66 "></polygon> <polygon class="fil10" points="2131.78,1473.22 2438.45,1803.21 2594.42,1689.25 "></polygon> <polygon class="fil12" points="2220.16,1040 2362.15,672.04 2561.92,955.72 "></polygon> <polygon class="fil18" points="2220.16,1040 1987.68,1290.7 1848.87,856.02 "></polygon> <polygon class="fil19" points="2220.16,1040 2406.4,1229.82 2561.92,955.72 "></polygon> <polygon class="fil8" points="2220.16,1040 1987.68,1290.7 2406.4,1229.82 "></polygon> <polygon class="fil20" points="2696.64,518.33 2955.85,654.38 2362.15,672.04 "></polygon> <polygon class="fil21" points="2955.85,654.38 3037.51,163.49 2696.64,518.33 "></polygon> <polygon class="fil20" points="3037.51,163.49 3147.39,429.21 2955.85,654.38 "></polygon> <polygon class="fil22" points="3037.51,163.49 3512.51,0 3147.39,429.21 "></polygon> <polygon class="fil15" points="1848.87,1813.28 1950.86,2027.8 1848.87,2051.53 "></polygon> <polygon class="fil16" points="1950.86,2027.8 1848.87,2396.16 1848.87,2051.53 "></polygon> <polygon class="fil23" points="2131.78,1473.22 2054.93,1803.21 2312.17,1667.33 "></polygon> <polygon class="fil10" points="1950.86,2027.8 2054.93,1803.21 1848.87,1813.28 "></polygon> <polygon class="fil24" points="2054.93,1803.21 1848.87,1674.95 1848.87,1813.28 "></polygon> <polygon class="fil25" points="1848.87,1674.95 2131.78,1473.22 2054.93,1803.21 "></polygon> <polygon class="fil25" points="2054.93,1803.21 2220.16,2051.53 1950.86,2027.8 "></polygon> <polygon class="fil26" points="2312.17,1667.33 2269.55,1844.77 2054.93,1803.21 "></polygon> <polygon class="fil27" points="2312.17,1667.33 2438.45,1803.21 2269.55,1844.77 "></polygon> <polygon class="fil23" points="2269.55,1844.77 2220.16,2051.53 2530.86,1976.6 "></polygon> <polygon class="fil28" points="2438.45,1803.21 2530.86,1976.6 2269.55,1844.77 "></polygon> <polygon class="fil29" points="2530.86,1976.6 2721.61,1771.01 2438.45,1803.21 "></polygon> <polygon class="fil26" points="2594.4,1689.26 2721.61,1771.01 2438.45,1803.21 "></polygon> <polygon class="fil27" points="2594.4,1689.26 2864.19,1658.04 2721.61,1771.01 "></polygon> <polygon class="fil30" points="2864.19,1658.04 2832.32,1508.14 2594.4,1689.26 "></polygon> <polygon class="fil26" points="2832.32,1508.14 2918.76,1405.54 2864.19,1658.04 "></polygon> <polygon class="fil31" points="2918.76,1405.54 2832.41,1313.11 2832.32,1508.14 "></polygon> <path class="fil3" d="M2412.96 1226.86c0,0 185.41,-72.12 304.89,-40.35l114.55 126.61c0,0 117.76,430.67 -387.62,379.72 0,0 -205.37,-48.04 -313.01,-219.62 0,0 49.39,-150.74 281.19,-246.36z"></path> <path class="fil32" d="M2513.93 1357.2c-110.81,0 -204.66,72.53 -236.75,172.69 -7.66,-23.93 -11.84,-49.42 -11.84,-75.88 0,-137.29 111.3,-248.6 248.59,-248.6 137.29,0 248.59,111.3 248.59,248.6 0,26.46 -4.18,51.95 -11.84,75.88 -32.07,-100.16 -125.92,-172.69 -236.75,-172.69z"></path> <path class="fil33" d="M2513.93 1702.59c-110.81,0 -204.66,-72.53 -236.75,-172.7 32.09,-100.16 125.93,-172.69 236.75,-172.69 110.82,0 204.67,72.53 236.75,172.69 -32.07,100.17 -125.92,172.7 -236.75,172.7z"></path> <path class="fil3" d="M2634.98 1438.63c0,75.34 -61.07,136.41 -136.41,136.41 -75.34,0 -136.42,-61.08 -136.42,-136.41 0,-75.33 61.07,-136.41 136.42,-136.41 75.33,0 136.41,61.08 136.41,136.41z"></path> <polygon class="fil24" points="1950.86,2027.8 1848.87,2396.16 2220.16,2051.53 "></polygon> <polygon class="fil34" points="2220.16,2051.53 2317.05,2266 1848.87,2396.16 "></polygon> <polygon class="fil35" points="2220.16,2051.53 2530.86,1976.6 2317.05,2266 "></polygon> <polygon class="fil31" points="2269.55,1844.77 2220.16,2051.53 2054.93,1803.21 "></polygon> <polygon class="fil8" points="1987.68,1290.7 1848.87,1674.95 2131.78,1473.22 "></polygon> <polygon class="fil36" points="1987.68,1290.7 1848.87,1311.99 1848.87,1674.95 "></polygon> <polygon class="fil11" points="1848.87,856.02 1987.68,1290.7 1848.87,1311.99 "></polygon> <polygon class="fil21" points="3292.99,1782.19 3002.13,2267.18 3610.12,2800.16 "></polygon> <polygon class="fil37" points="3292.99,1782.19 3518.46,2505.92 3640.51,2121.29 "></polygon> <polygon class="fil38" points="3292.99,1782.19 3623.99,1803.21 3640.51,2121.29 "></polygon> <polygon class="fil39" points="3292.99,1782.19 3325.58,1580.82 3623.99,1803.21 "></polygon> <polygon class="fil38" points="3313.7,1349.3 3325.58,1580.82 3623.99,1803.21 "></polygon> <polygon class="fil12" points="3313.7,1349.3 3354.95,1072.08 3623.99,1803.21 "></polygon> <polygon class="fil7" points="3238.74,1389.27 3325.58,1580.82 3313.7,1349.3 "></polygon> <polygon class="fil5" points="3238.74,1389.27 3245.31,1627.26 3325.58,1580.82 "></polygon> <polygon class="fil13" points="3245.31,1627.26 3292.99,1782.19 3325.58,1580.82 "></polygon> <polygon class="fil7" points="3245.31,1627.26 3155.55,1883.72 3292.99,1782.19 "></polygon> <polygon class="fil10" points="3292.99,1782.19 3145.68,2027.8 3155.55,1883.72 "></polygon> <polygon class="fil40" points="3155.55,1883.72 2981.72,2121.29 3145.68,2027.8 "></polygon> <polygon class="fil6" points="2981.72,2121.29 3002.13,2267.18 3145.68,2027.8 "></polygon> <polygon class="fil18" points="3002.13,2267.18 2462.03,2635.54 2942.46,2593.22 "></polygon> <polygon class="fil5" points="3002.13,2267.18 2942.46,2593.22 3610.12,2800.16 "></polygon> <polygon class="fil7" points="2942.46,2593.22 2745.36,2823.42 2462.03,2635.54 "></polygon> <polygon class="fil37" points="2942.46,2593.22 2972.73,3009.63 3110.24,2644.37 "></polygon> <polygon class="fil1" points="2942.46,2593.22 2745.36,2823.42 2972.73,3009.63 "></polygon> <polygon class="fil41" points="2317.05,2266 2462.03,2635.54 2360.77,2817.37 "></polygon> <polygon class="fil34" points="2530.86,1976.6 3002.13,2267.18 2981.72,2121.29 "></polygon> <polygon class="fil22" points="2530.86,1976.6 2766.5,2427.88 3002.13,2267.18 "></polygon> <polygon class="fil42" points="2530.86,1976.6 2462.03,2635.54 2766.5,2427.88 "></polygon> <polygon class="fil43" points="2530.86,1976.6 2317.05,2266 2462.03,2635.54 "></polygon> <polygon class="fil24" points="2462.03,2635.54 2585.44,3222.33 2360.77,2817.37 "></polygon> <polygon class="fil23" points="2462.03,2635.54 2745.36,2823.42 2585.44,3222.33 "></polygon> <polygon class="fil20" points="2317.05,2266 2023.96,2346.78 2162.25,2687.38 "></polygon> <polygon class="fil19" points="2317.05,2266 2162.25,2687.38 2360.77,2817.37 "></polygon> <polygon class="fil43" points="2023.96,2346.78 2017.42,2762.46 2162.25,2687.38 "></polygon> <polygon class="fil42" points="2023.96,2346.78 1938.06,2665.39 2017.42,2762.46 "></polygon> <polygon class="fil11" points="2023.96,2346.78 1848.87,2396.16 1938.06,2665.39 "></polygon> <polygon class="fil19" points="1848.87,2396.16 1848.87,2727.19 1938.06,2665.39 "></polygon> <polygon class="fil12" points="2162.25,2687.38 2092,3339.73 2017.42,2762.46 "></polygon> <polygon class="fil9" points="2017.42,2762.46 1848.87,3239.01 2092,3339.73 "></polygon> <polygon class="fil4" points="2017.42,2762.46 1938.06,2665.39 1848.87,3239.01 "></polygon> <polygon class="fil5" points="1938.06,2665.39 1848.87,2727.19 1848.87,3239.01 "></polygon> <polygon class="fil10" points="2162.25,2687.38 2304.41,3229.08 2360.77,2817.37 "></polygon> <polygon class="fil18" points="2162.25,2687.38 2092,3339.73 2263.54,3073.33 "></polygon> <polygon class="fil24" points="2864.19,1658.04 2981.72,2121.29 2721.61,1771.01 "></polygon> <polygon class="fil44" points="2721.61,1771.01 2732.08,2041.17 2981.72,2121.29 "></polygon> <polygon class="fil24" points="2721.61,1771.01 2530.86,1976.6 2732.08,2041.17 "></polygon> <polygon class="fil45" points="2864.19,1658.04 3155.55,1883.72 2981.72,2121.29 "></polygon> <polygon class="fil44" points="2864.19,1658.04 3245.31,1627.26 3155.55,1883.72 "></polygon> <polygon class="fil31" points="2864.19,1658.04 3102.82,1478.3 3245.31,1627.26 "></polygon> <polygon class="fil23" points="3102.82,1478.3 3238.74,1389.27 3245.31,1627.26 "></polygon> <polygon class="fil24" points="3102.82,1478.3 2918.76,1405.54 2864.19,1658.04 "></polygon> <polygon class="fil46" points="2918.76,1405.54 2981.72,1022.95 2759.45,1073.9 "></polygon> <polygon class="fil47" points="2918.76,1405.54 3238.74,1389.27 2981.72,1022.95 "></polygon> <polygon class="fil0" points="2918.76,1405.54 3102.82,1478.3 3238.74,1389.27 "></polygon> </g> </svg> 